<svg width="151px" height="213px" viewBox="0 0 151 213" version="1.1" xmlns="http://www.w3.org/2000/svg" xmlns:xlink="http://www.w3.org/1999/xlink">
    <!-- Generator: Sketch 48.2 (47327) - http://www.bohemiancoding.com/sketch -->
    <title>pause(1)</title>
    <desc>Created with Sketch.</desc>
    <defs></defs>
    <g id="Page-1" stroke="none" stroke-width="1" fill="none" fill-rule="evenodd">
        <g id="pause(1)" fill="#FFFFFF" fill-rule="nonzero">
            <path d="M17.667,0.117 C8.317,0.117 0.667,7.767 0.667,17.117 L0.667,195.617 C0.667,204.967 8.317,212.617 17.667,212.617 C27.017,212.617 34.667,204.967 34.667,195.617 L34.667,17.117 C34.667,7.767 27.017,0.117 17.667,0.117 Z" id="Shape"></path>
            <path d="M133.833,0.117 C124.483,0.117 116.833,7.767 116.833,17.117 L116.833,195.617 C116.833,204.967 124.483,212.617 133.833,212.617 C143.183,212.617 150.833,204.967 150.833,195.617 L150.833,17.117 C150.833,7.767 143.183,0.117 133.833,0.117 Z" id="Shape"></path>
        </g>
    </g>
</svg>
